<svg xmlns="http://www.w3.org/2000/svg" version="1.1" viewBox="-5.0 -10.0 110.0 135.0">
 <path d="m20.363 37.379c0.042969 0.015625 0.085938 0.023438 0.13281 0.023438 0.14062 0 0.27344-0.082032 0.32812-0.22266 0.47656-1.1836 1.0312-2.3516 1.6406-3.4727 0.09375-0.17188 0.03125-0.38672-0.14062-0.48047s-0.38672-0.03125-0.48047 0.14063c-0.625 1.1445-1.1875 2.3359-1.6758 3.5469-0.074219 0.18359 0.015625 0.39063 0.19531 0.46484z"/>
 <path d="m18.391 44.875c0.015625 0.003906 0.035156 0.003906 0.054687 0.003906 0.17188 0 0.32422-0.125 0.35156-0.30078 0.19141-1.2617 0.46094-2.5273 0.80078-3.7578 0.050782-0.1875-0.058594-0.38281-0.24609-0.43359s-0.38281 0.058593-0.43359 0.24609c-0.34375 1.2539-0.62109 2.5469-0.81641 3.8359-0.035156 0.19531 0.097657 0.375 0.28906 0.40625z"/>
 <path d="m35.699 20.359c0.058593 0 0.11328-0.015625 0.17188-0.042969 1.1211-0.60938 2.2891-1.1602 3.4688-1.6367 0.18359-0.074219 0.26953-0.28125 0.19531-0.46094-0.074218-0.18359-0.28125-0.26953-0.46094-0.19531-1.207 0.48437-2.3984 1.0469-3.5469 1.6719-0.17188 0.09375-0.23438 0.30859-0.14062 0.48047 0.066406 0.12109 0.1875 0.18359 0.3125 0.18359z"/>
 <path d="m24.004 30.535c0.0625 0.046875 0.13281 0.066406 0.20312 0.066406 0.11328 0 0.21875-0.050781 0.28906-0.14844 0.73438-1.043 1.5391-2.0508 2.3906-3.0078 0.12891-0.14453 0.11719-0.37109-0.027344-0.5-0.14453-0.12891-0.37109-0.11719-0.5 0.027344-0.86719 0.97266-1.6914 2.0039-2.4414 3.0703-0.11719 0.15625-0.074219 0.37891 0.085937 0.49219z"/>
 <path d="m29.363 24.816c0.085938 0 0.16797-0.03125 0.23438-0.089844 0.95312-0.85156 1.9648-1.6523 3.0078-2.3867 0.16016-0.11328 0.19922-0.33203 0.085937-0.49219-0.11328-0.16016-0.33203-0.19922-0.49219-0.085937-1.0664 0.75-2.0977 1.5703-3.0742 2.4336-0.14453 0.12891-0.16016 0.35547-0.03125 0.5 0.078125 0.082032 0.17188 0.12109 0.26953 0.12109z"/>
 <path d="m21.523 63.781c-0.082032-0.17578-0.29297-0.25391-0.46875-0.17188-0.17578 0.082031-0.25391 0.29297-0.17188 0.46875 0.55078 1.1797 1.1758 2.3398 1.8594 3.4492 0.066406 0.10938 0.18359 0.16797 0.30078 0.16797 0.0625 0 0.12891-0.015624 0.18359-0.050781 0.16797-0.10156 0.21875-0.32031 0.11328-0.48828-0.66797-1.082-1.2812-2.2227-1.8164-3.375z"/>
 <path d="m56.141 82.801c-1.2617 0.16406-2.5508 0.25391-3.8281 0.27344-0.19531 0.003906-0.35156 0.16406-0.35156 0.35938 0.003906 0.19531 0.16016 0.35156 0.35547 0.35156h0.003906c1.3086-0.019531 2.6211-0.11328 3.9102-0.28125 0.19531-0.023437 0.32812-0.20312 0.30469-0.39844-0.019531-0.19141-0.19922-0.32812-0.39453-0.30469z"/>
 <path d="m48.477 82.914c-1.2734-0.125-2.5469-0.32812-3.793-0.59766-0.19141-0.039062-0.37891 0.078125-0.42188 0.26953-0.042969 0.19141 0.078125 0.37891 0.26953 0.42187 1.2695 0.27344 2.5742 0.48438 3.8711 0.60938 0.011718 0 0.023437 0.003906 0.035156 0.003906 0.17969 0 0.33594-0.13672 0.35156-0.32031 0.023438-0.19141-0.11719-0.36719-0.3125-0.38672z"/>
 <path d="m40.984 81.289c-1.207-0.41406-2.4023-0.90234-3.5547-1.4531-0.17578-0.085938-0.38672-0.011719-0.47266 0.16797-0.085937 0.17578-0.011719 0.38672 0.16797 0.47266 1.1758 0.5625 2.3984 1.0625 3.6289 1.4844 0.039063 0.011718 0.078125 0.019531 0.11328 0.019531 0.14844 0 0.28516-0.09375 0.33594-0.23828 0.0625-0.19141-0.035156-0.39063-0.21875-0.45313z"/>
 <path d="m34.066 77.98c-1.0781-0.67578-2.1328-1.4258-3.1289-2.2266-0.15234-0.12109-0.375-0.097656-0.49609 0.054688s-0.097656 0.375 0.054688 0.49609c1.0156 0.81641 2.0938 1.5781 3.1953 2.2734 0.058594 0.039063 0.12109 0.054687 0.1875 0.054687 0.11719 0 0.23438-0.058593 0.30078-0.16406 0.10156-0.16406 0.050781-0.38281-0.11328-0.48828z"/>
 <path d="m25.539 70.309c-0.12109-0.15625-0.34375-0.17969-0.49609-0.058594-0.15625 0.12109-0.17969 0.34375-0.058594 0.49609 0.80469 1.0234 1.6758 2.0117 2.5938 2.9375 0.070313 0.070312 0.16016 0.10547 0.25391 0.10547 0.089844 0 0.17969-0.035156 0.25-0.10156 0.14062-0.13672 0.14062-0.36328 0.003907-0.5-0.90234-0.90625-1.7578-1.8789-2.5469-2.8789z"/>
 <path d="m83.695 37.531c-0.46484-1.2188-1.0039-2.4219-1.6055-3.5742-0.089844-0.17188-0.30469-0.23828-0.47656-0.14844s-0.23828 0.30469-0.14844 0.47656c0.58984 1.1328 1.1172 2.3086 1.5742 3.5 0.054688 0.14062 0.1875 0.22656 0.32813 0.22656 0.042968 0 0.085937-0.007813 0.125-0.023438 0.17969-0.070312 0.27344-0.27344 0.20312-0.45703z"/>
 <path d="m82.496 63.766c-0.17578-0.082031-0.38672-0.007813-0.47266 0.17188-0.54688 1.1523-1.1641 2.2891-1.8359 3.3711-0.10156 0.16406-0.050781 0.38672 0.11328 0.48828 0.058594 0.035156 0.12109 0.050781 0.1875 0.050781 0.11719 0 0.23438-0.058594 0.30078-0.16797 0.69141-1.1094 1.3203-2.2656 1.8789-3.4414 0.082031-0.17578 0.007812-0.38672-0.17188-0.47266z"/>
 <path d="m85.914 49.023c-0.003906-0.19531-0.15625-0.35156-0.35937-0.34766-0.19531 0.003907-0.35156 0.16406-0.34766 0.35938 0.003907 0.21094 0.003907 0.42578 0.003907 0.64062 0 1.0664-0.050782 2.1406-0.15234 3.1992-0.015625 0.19531 0.125 0.36719 0.32031 0.38672 0.011719 0 0.023438 0.003906 0.035156 0.003906 0.17969 0 0.33594-0.13672 0.35156-0.32031 0.10156-1.0781 0.15625-2.1758 0.15625-3.2656 0-0.21875 0-0.4375-0.007813-0.65625z"/>
 <path d="m84.918 45.211c0.023437 0.17578 0.17578 0.30859 0.35156 0.30859 0.015625 0 0.03125 0 0.046875-0.003906 0.19531-0.023437 0.32812-0.20312 0.30469-0.39844-0.17188-1.293-0.42188-2.5859-0.74219-3.8516-0.046875-0.19141-0.23828-0.30469-0.42969-0.25391-0.19141 0.046875-0.30469 0.23828-0.25781 0.42969 0.3125 1.2344 0.55469 2.5039 0.72656 3.7695z"/>
 <path d="m79.496 30.984c0.066406 0.10156 0.17969 0.15625 0.29297 0.15625 0.066407 0 0.13672-0.019531 0.19922-0.058594 0.16406-0.10938 0.20312-0.32812 0.09375-0.49219-0.73047-1.0781-1.5312-2.1289-2.3789-3.1133-0.12891-0.14844-0.35156-0.16406-0.5-0.039062-0.14844 0.12891-0.16406 0.35156-0.039063 0.5 0.83203 0.96484 1.6172 1.9922 2.332 3.0469z"/>
 <path d="m84.898 56.398c-0.19141-0.039063-0.37891 0.082031-0.42188 0.27344-0.26562 1.2461-0.60937 2.4961-1.0156 3.7031-0.0625 0.18359 0.039062 0.38672 0.22266 0.44922 0.039062 0.011719 0.074218 0.015625 0.11328 0.015625 0.14844 0 0.28516-0.09375 0.33594-0.23828 0.41797-1.2344 0.76563-2.5078 1.0391-3.7812 0.039063-0.19141-0.082031-0.37891-0.27344-0.42187z"/>
 <path d="m71.543 22.727c1.0273 0.75391 2.0234 1.5781 2.9609 2.4453 0.066406 0.0625 0.15625 0.09375 0.23828 0.09375 0.09375 0 0.19141-0.039063 0.26172-0.11328 0.13281-0.14062 0.125-0.36719-0.019531-0.5-0.95703-0.88672-1.9727-1.7266-3.0234-2.4961-0.15625-0.11328-0.37891-0.082031-0.49609 0.074219-0.11328 0.15625-0.078125 0.37891 0.078125 0.49609z"/>
 <path d="m64.879 18.93c1.1719 0.5 2.3281 1.0742 3.4414 1.7031 0.054688 0.03125 0.11328 0.046876 0.17578 0.046876 0.12109 0 0.24219-0.066407 0.30859-0.17969 0.097656-0.17188 0.039062-0.38672-0.13281-0.48438-1.1367-0.64453-2.3164-1.2344-3.5156-1.7422-0.17969-0.078126-0.38672 0.007812-0.46484 0.1875-0.078125 0.18359 0.007813 0.39062 0.1875 0.46875z"/>
 <path d="m45.609 48.055c1.0312 0 1.9961-0.32813 2.6641-0.90625l0.42187-0.29688c0.011719-0.007812 0.019532-0.015624 0.03125-0.023437 0.53906-0.47266 1.3438-0.74219 2.2109-0.74219s1.6719 0.26953 2.2266 0.75391l0.37109 0.29688c0.66406 0.58203 1.6406 0.91797 2.6797 0.91797 1.0312 0 1.9961-0.32813 2.6641-0.90625l0.42188-0.29688c0.011719-0.007812 0.019531-0.015624 0.03125-0.023437 0.53906-0.47266 1.3438-0.74219 2.2109-0.74219 0.86719 0 1.6719 0.26953 2.2188 0.75l0.36328 0.29687c0.33594 0.29688 0.76172 0.52734 1.2344 0.68359 0.26172 0.41797 0.5625 0.81641 0.89844 1.1836h-1.7812c-0.19531 0-0.35547 0.15625-0.35547 0.35547s0.15625 0.35547 0.35547 0.35547h2.6484c0.023438 0 0.050781-0.003907 0.074219-0.007813 0.003906 0 0.007812-0.003906 0.011719-0.003906 0.019531-0.003907 0.039062-0.011719 0.058593-0.015625 0.007813-0.003906 0.015625-0.007813 0.019531-0.011719 0.015626-0.007813 0.027344-0.015625 0.042969-0.023437 0.007813-0.003907 0.015625-0.011719 0.019531-0.015626 0.011719-0.011718 0.023438-0.019531 0.035157-0.03125l0.007812-0.007812c0.003907-0.003906 0.007813-0.011719 0.011719-0.015625 0.007812-0.011719 0.015625-0.019531 0.023438-0.03125 0.003906-0.011719 0.011718-0.019531 0.015624-0.03125 0.003907-0.011719 0.011719-0.019531 0.015626-0.03125 0.003906-0.011719 0.007812-0.023437 0.011718-0.035156s0.003906-0.019531 0.007813-0.03125c0.003906-0.011719 0.003906-0.023438 0.003906-0.039063 0-0.007812 0.003906-0.011718 0.003906-0.019531v-2.6484c0-0.19531-0.15625-0.35547-0.35547-0.35547-0.19922 0-0.35547 0.15625-0.35547 0.35547v1.8125c-1.25-1.3594-1.9531-3.1367-1.9531-4.9883 0-4.0664 3.3086-7.375 7.375-7.375 0.44141 0 0.83594 0.03125 1.2148 0.09375 0.19141 0.03125 0.375-0.097656 0.40625-0.29297 0.03125-0.19141-0.097656-0.375-0.29297-0.40625-0.41406-0.070313-0.85156-0.10156-1.3281-0.10156-1.0586 0-2.0742 0.20703-3.0039 0.57812v-6.8594c0-5.1328-4.1758-9.3086-9.3047-9.3086h-0.45703l0.003906-1.6641c0-1.0938-0.89062-1.9883-1.9883-1.9883h-0.41797c-0.95703 0-1.7617 0.68359-1.9492 1.5859h-8.8281c-0.76562 0-1.3906 0.62109-1.3906 1.3906v23.703c-0.57422-0.10938-1.0938-0.33594-1.4727-0.67188-0.10547-0.09375-0.25391-0.11328-0.37891-0.058594-0.12891 0.058594-0.20703 0.18359-0.20703 0.32422v4.3867c0 0.10156 0.046874 0.19922 0.12109 0.26562 0.66797 0.58203 1.6484 0.91797 2.6836 0.91797zm13.832-24.641h0.25c3.4961 0 6.3359 2.9258 6.3359 6.5273 0 0.19531 0.15625 0.35547 0.35547 0.35547 0.19922 0 0.35547-0.15625 0.35547-0.35547 0-3.9883-3.1602-7.2344-7.0469-7.2344h-0.25v-2.1367h0.45703c4.7383 0 8.5977 3.8594 8.5977 8.5977v7.1836c-2.1484 1.1133-3.7344 3.1641-4.2188 5.6055l-0.050782-0.042969c-0.61719-0.53906-1.5039-0.86328-2.4531-0.91016v-10.629c0-1.4023-0.99609-2.5273-2.3281-2.6992zm-3.6836-5.2109c0-0.70312 0.57422-1.2812 1.2812-1.2812h0.41797c0.70312 0 1.2812 0.57422 1.2812 1.2812v11.141c0 0.70312-0.57422 1.2812-1.2812 1.2812h-0.41797c-0.70312 0-1.2812-0.57422-1.2812-1.2812zm-0.65625 11.594c0.20313 0.87891 0.99219 1.5391 1.9336 1.5391h0.41797c1.0938 0 1.9883-0.89063 1.9883-1.9883v-0.94922c0.93359 0.16406 1.6211 0.97656 1.6211 1.9766v10.645c-0.84375 0.085938-1.6211 0.39062-2.1797 0.87891l-0.42187 0.29687c-0.011719 0.007813-0.019532 0.015626-0.03125 0.023438-0.53906 0.47266-1.3438 0.74219-2.2109 0.74219s-1.6719-0.26953-2.2266-0.75391l-0.37109-0.29688c-0.21094-0.1875-0.46094-0.34375-0.73438-0.48047v-11.637zm-9.5234-10.605c0-0.375 0.30469-0.67969 0.67969-0.67969h8.7891v10.578h-2.5156c-0.19531 0-0.35547 0.15625-0.35547 0.35547v11.723c-0.39062-0.10938-0.80859-0.17188-1.2383-0.17188-1.0312 0-1.9961 0.32812-2.6641 0.90625l-0.42188 0.29688c-0.011718 0.007812-0.019531 0.015625-0.03125 0.023437-0.53906 0.47266-1.3438 0.74219-2.2109 0.74219h-0.03125zm-2.0625 23.969c0.48438 0.26562 1.0547 0.43359 1.6602 0.48828 0.015625 0.003906 0.03125 0.003906 0.046875 0.003906h0.003906c0.12891 0.011718 0.25391 0.015625 0.38281 0.015625 1.0312 0 1.9961-0.32812 2.6641-0.90625l0.42187-0.29688c0.011719-0.007813 0.019532-0.015625 0.03125-0.023438 0.53906-0.47266 1.3438-0.74219 2.2109-0.74219s1.6719 0.26953 2.2266 0.75391l0.37109 0.29688c0.66406 0.58203 1.6406 0.91797 2.6797 0.91797 1.0312 0 1.9961-0.32812 2.6641-0.90625l0.42188-0.29688c0.011719-0.007813 0.019531-0.015625 0.03125-0.023438 0.53906-0.47266 1.3438-0.74219 2.2109-0.74219 0.86719 0 1.6719 0.26953 2.2188 0.75l0.36328 0.29688c0.011719 0.007812 0.019531 0.015625 0.03125 0.023437-0.023438 0.24609-0.039062 0.5-0.039062 0.75391 0 1.125 0.23828 2.2266 0.68359 3.2344-0.074219-0.050781-0.14844-0.10937-0.21484-0.16797l-0.36328-0.29688c-0.66406-0.58203-1.6406-0.91797-2.6758-0.91797-1.0312 0-1.9961 0.32812-2.6641 0.90625l-0.42187 0.29688c-0.011719 0.007813-0.019532 0.015625-0.03125 0.023437-0.53906 0.47266-1.3438 0.74219-2.2109 0.74219s-1.6719-0.26953-2.2266-0.75391l-0.37109-0.29688c-0.66406-0.58203-1.6406-0.91797-2.6797-0.91797-1.0312 0-1.9961 0.32812-2.6641 0.90625l-0.42188 0.29688c-0.011719 0.007813-0.019531 0.015625-0.03125 0.023437-0.53906 0.47266-1.3438 0.74219-2.2109 0.74219-0.80469 0-1.5586-0.23438-2.0898-0.64062z"/>
 <path d="m67.664 49.789c-0.10937 0.16406-0.0625 0.38281 0.10156 0.48828 1.3242 0.87109 2.8594 1.332 4.4375 1.332 4.457 0 8.082-3.6289 8.082-8.082 0-3.2227-1.8789-6.0742-4.7539-7.3711l1.9414-0.76172c0.18359-0.074219 0.27344-0.27734 0.19922-0.46094s-0.27344-0.27344-0.46094-0.19922l-2.7812 1.0898c-0.003907 0-0.003907 0.003906-0.007813 0.003906-0.039063 0.015625-0.074219 0.039063-0.10156 0.066406-0.003906 0.003907-0.007812 0.007813-0.011718 0.011719-0.027344 0.03125-0.050782 0.0625-0.070313 0.10156-0.003906 0.003907-0.003906 0.003907-0.003906 0.007813-0.003906 0.003906-0.003906 0.011719-0.003906 0.015625-0.003907 0.003906-0.003907 0.011719-0.007813 0.015625s-0.003906 0.011719-0.003906 0.019531c-0.003906 0.011719-0.003906 0.023438-0.007812 0.035156-0.003907 0.011719-0.003907 0.023438-0.003907 0.035157v0.03125c0 0.011719 0.003907 0.023437 0.003907 0.039062 0.003906 0.011719 0.003906 0.019531 0.003906 0.03125l0.011718 0.035157c0.003907 0.003906 0.003907 0.011718 0.003907 0.015624l1.1758 2.8164c0.058594 0.13672 0.1875 0.21875 0.32812 0.21875 0.046875 0 0.09375-0.011719 0.13672-0.027344 0.17969-0.074219 0.26562-0.28125 0.19141-0.46094l-0.85547-2.0469c2.6406 1.1758 4.3711 3.7891 4.3711 6.7383 0 4.0664-3.3086 7.375-7.375 7.375-1.4414 0-2.8398-0.42188-4.0469-1.2148-0.16406-0.10547-0.38281-0.058594-0.49219 0.10156z"/>
 <path d="m71.621 49.047c0.23438 0.042969 0.46484 0.0625 0.69531 0.0625 0.89062 0 1.75-0.31641 2.4688-0.91406 1.0312-0.86328 1.625-2.1758 1.625-3.6016 0-0.48828-0.074218-0.97266-0.21875-1.4453-0.003906-0.007813-0.003906-0.015626-0.007812-0.023438-0.18359-0.56641-1.5391-2.9453-1.6953-3.2188l-1.4062-2.3789c-0.16406-0.27344-0.44922-0.44141-0.76953-0.44141s-0.60938 0.16406-0.76953 0.44141l-1.4102 2.3867c-0.15234 0.26563-1.4766 2.5859-1.6836 3.1914-0.011719 0.027343-0.023438 0.058593-0.027344 0.085937-0.26172 0.87109-0.27344 1.7617-0.046875 2.6523 0.43359 1.6641 1.707 2.9219 3.2461 3.2031zm-2.5078-5.6914c0.003907-0.003907 0.003907-0.007813 0.003907-0.011719 0.10937-0.35938 1.0586-2.0781 1.6289-3.0781l1.4062-2.3789c0.046875-0.082031 0.12891-0.089844 0.16016-0.089844s0.10938 0.011719 0.16016 0.089844l1.4062 2.375c0.57422 1.0039 1.5234 2.7266 1.6328 3.082 0 0.003906 0.003906 0.003906 0.003906 0.011719v0.003906c0.125 0.40625 0.1875 0.82031 0.1875 1.2383 0 1.2188-0.5 2.3281-1.3711 3.0586-0.73828 0.61719-1.6562 0.86328-2.5859 0.69922-1.2656-0.23047-2.3242-1.2852-2.6836-2.6836-0.19922-0.78125-0.18359-1.5586 0.050781-2.3164z"/>
 <path d="m76.297 68.855c-1.1289 0-2.0664 0.83203-2.2383 1.9141h-2.7852c-0.042969-1.0547-0.39063-2.4141-0.94922-3.9414h2.1523c0.19531 0 0.35547-0.15625 0.35547-0.35547v-2.4531c1.082-0.17188 1.9141-1.1094 1.9141-2.2383 0-1.2539-1.0156-2.2695-2.2695-2.2695-1.2539 0-2.2695 1.0156-2.2695 2.2695 0 1.1289 0.83203 2.0664 1.9141 2.2383v2.0977h-2.0664c-2.0039-5.1484-5.9648-11.828-7.9844-15.094-0.26562-0.43359-0.73437-0.69531-1.2461-0.69531s-0.97656 0.26172-1.2461 0.69531c-2.7656 4.4805-9.2031 15.395-9.2031 19.953 0 5.7617 4.6875 10.449 10.449 10.449 3.8906 0 7.2891-2.1367 9.0859-5.3008h2.2031v2.0977c-1.082 0.17188-1.9141 1.1094-1.9141 2.2383 0 1.2539 1.0156 2.2695 2.2695 2.2695s2.2695-1.0156 2.2695-2.2695c0-1.1289-0.83203-2.0664-1.9141-2.2383v-2.4492c0-0.19531-0.15625-0.35547-0.35547-0.35547h-2.1914c0.57031-1.207 0.91406-2.5391 0.98047-3.9414h2.7891c0.17188 1.082 1.1094 1.9141 2.2383 1.9141 1.2539 0 2.2695-1.0156 2.2695-2.2695 0.011718-1.25-1.0078-2.2656-2.2578-2.2656zm-5.3828-7.0742c0-0.85938 0.69922-1.5586 1.5586-1.5586s1.5586 0.69922 1.5586 1.5586-0.69922 1.5586-1.5586 1.5586c-0.85547 0.003906-1.5586-0.69531-1.5586-1.5586zm3.125 18.684c0 0.85938-0.69922 1.5586-1.5586 1.5586s-1.5586-0.69922-1.5586-1.5586 0.69922-1.5586 1.5586-1.5586c0.85547 0 1.5586 0.69922 1.5586 1.5586zm-13.207 0.25391c-5.3711 0-9.7383-4.3711-9.7383-9.7383 0-4.5 6.9648-16.125 9.1016-19.578 0.13672-0.22656 0.37891-0.35938 0.64063-0.35938 0.26172 0 0.50391 0.13672 0.64062 0.35938 1.5625 2.5312 5.7109 9.4336 7.8242 14.719h-2.8516l-1.0039-1.0039c-0.32812-0.32813-0.89844-0.32813-1.2266 0l-0.70312 0.70312c-0.26562-0.13672-0.54688-0.25-0.82812-0.34375v-0.99609c0-0.47656-0.39062-0.86719-0.86719-0.86719h-1.9766c-0.47656 0-0.86719 0.39062-0.86719 0.86719v0.99609c-0.28516 0.09375-0.5625 0.20703-0.82812 0.34375l-0.70313-0.70312c-0.32812-0.32813-0.89844-0.32813-1.2266 0l-1.3984 1.3984c-0.33594 0.33594-0.33594 0.88672 0 1.2266l0.70313 0.70312c-0.13672 0.26563-0.25 0.54688-0.34375 0.82813h-0.99609c-0.47656 0-0.86719 0.39062-0.86719 0.86719v1.9766c0 0.47656 0.38672 0.86719 0.86719 0.86719h0.99609c0.09375 0.28516 0.20703 0.5625 0.34375 0.82812l-0.70313 0.70312c-0.16406 0.16406-0.25391 0.38281-0.25391 0.61328 0 0.23438 0.089844 0.44922 0.25391 0.61328l1.3984 1.3984c0.32812 0.32812 0.89844 0.32812 1.2266 0l0.70313-0.70312c0.26562 0.13672 0.54687 0.25 0.82812 0.34375v0.99609c0 0.47656 0.38672 0.86719 0.86719 0.86719h1.9766c0.47656 0 0.86719-0.38672 0.86719-0.86719v-0.99609c0.28125-0.09375 0.5625-0.20703 0.82812-0.34375l0.70312 0.70312c0.32812 0.32812 0.89844 0.32812 1.2266 0l1.0039-1.0039h2.6406c-1.7188 2.75-4.7773 4.582-8.2578 4.582zm4.6523-12c0.13672 0.26172 0.25 0.53906 0.33984 0.82031 0.085937 0.26563 0.32422 0.44141 0.59766 0.44141h1.0586c0.085937 0 0.15625 0.070312 0.15625 0.15625v1.9766c0 0.085938-0.070313 0.15625-0.15625 0.15625h-1.0586c-0.27344 0-0.51562 0.17578-0.59766 0.44141-0.089844 0.28125-0.20312 0.55859-0.33984 0.82031-0.12891 0.24609-0.082031 0.53906 0.10938 0.73438l0.74609 0.74609c0.039062 0.039062 0.046875 0.085937 0.046875 0.11328 0 0.023438-0.003907 0.074219-0.046875 0.11328l-1.3984 1.3984c-0.039062 0.039062-0.085937 0.046875-0.11328 0.046875-0.023437 0-0.074219-0.003906-0.11328-0.046875l-0.74609-0.74609c-0.19531-0.19531-0.48828-0.23828-0.73438-0.10938-0.26172 0.13672-0.53906 0.25-0.82031 0.33984-0.26562 0.085937-0.44141 0.32422-0.44141 0.59766v1.0586c0 0.085937-0.070312 0.15625-0.15625 0.15625h-1.9766c-0.085938 0-0.15625-0.070313-0.15625-0.15625v-1.0586c0-0.27344-0.17578-0.51562-0.44141-0.59766-0.28125-0.089844-0.55859-0.20312-0.82031-0.33984-0.09375-0.046875-0.19531-0.074219-0.29688-0.074219-0.16406 0-0.32422 0.0625-0.44141 0.18359l-0.74609 0.74609c-0.0625 0.0625-0.16406 0.0625-0.22656 0l-1.3984-1.3984c-0.039062-0.039062-0.046875-0.085937-0.046875-0.11328 0-0.023438 0.003906-0.074219 0.046875-0.11328l0.74609-0.74609c0.19141-0.19141 0.23828-0.48828 0.10938-0.73438-0.13672-0.26172-0.25-0.53906-0.33984-0.82031-0.085937-0.26563-0.32422-0.44141-0.59766-0.44141h-1.0586c-0.085937 0-0.15625-0.070312-0.15625-0.15625v-1.9766c0-0.085938 0.070313-0.15625 0.15625-0.15625h1.0586c0.27344 0 0.51562-0.17578 0.59766-0.44141 0.089844-0.28125 0.20312-0.55859 0.33984-0.82031 0.12891-0.24609 0.082031-0.53906-0.10938-0.73438l-0.74609-0.74609c-0.0625-0.0625-0.0625-0.16406 0-0.22656l1.3984-1.3984c0.0625-0.0625 0.16406-0.0625 0.22656 0l0.74609 0.74609c0.19531 0.19141 0.48828 0.23828 0.73438 0.10938 0.26172-0.13672 0.53906-0.25 0.82031-0.33984 0.26562-0.085937 0.44141-0.32422 0.44141-0.59766l0.003906-1.0547c0-0.085937 0.070312-0.15625 0.15625-0.15625h1.9766c0.085938 0 0.15625 0.070313 0.15625 0.15625v1.0586c0 0.27344 0.17578 0.51562 0.44141 0.59766 0.28125 0.089844 0.55859 0.20313 0.82031 0.33984 0.24609 0.12891 0.54297 0.082032 0.73438-0.10938l0.74609-0.74609c0.039062-0.039063 0.085937-0.046876 0.11328-0.046876 0.023437 0 0.074219 0.003907 0.11328 0.046876l1.3984 1.3984c0.039062 0.039063 0.046875 0.085937 0.046875 0.11328 0 0.023438-0.003907 0.074219-0.046875 0.11328l-0.74609 0.74609c-0.19531 0.1875-0.23828 0.48438-0.10938 0.73047zm4.0117 6.7031h-2.4531c0.035156-0.09375 0.054687-0.19141 0.054687-0.29688 0-0.23438-0.089844-0.44922-0.25391-0.61328l-0.70312-0.70312c0.13672-0.26562 0.25-0.54688 0.34375-0.82812h0.99609c0.47656 0 0.86719-0.39062 0.86719-0.86719v-0.63281h2.2148c-0.074219 1.4102-0.45312 2.7461-1.0664 3.9414zm-1.1523-4.6523v-0.63281c0-0.47656-0.39062-0.86719-0.86719-0.86719h-0.99609c-0.09375-0.28516-0.20703-0.5625-0.34375-0.82812l0.70312-0.70312c0.16406-0.16406 0.25391-0.38281 0.25391-0.61328 0-0.10156-0.019531-0.20312-0.054688-0.29688h2.5312c0.57813 1.5391 0.94922 2.9062 0.99219 3.9414zm7.9531 1.9141c-0.85938 0-1.5586-0.69922-1.5586-1.5586s0.69922-1.5586 1.5586-1.5586 1.5586 0.69922 1.5586 1.5586c0.003906 0.85938-0.69922 1.5586-1.5586 1.5586z"/>
 <path d="m60.832 67.863c-1.8008 0-3.2617 1.4609-3.2617 3.2617s1.4609 3.2617 3.2617 3.2617 3.2617-1.4609 3.2617-3.2617-1.4648-3.2617-3.2617-3.2617zm0 5.8125c-1.4062 0-2.5547-1.1445-2.5547-2.5547s1.1445-2.5547 2.5547-2.5547c1.4102 0 2.5547 1.1445 2.5547 2.5547s-1.1484 2.5547-2.5547 2.5547z"/>
 <path d="m44.719 69.168c0.050781-0.011719 0.10156-0.023438 0.14844-0.042969l0.089843-0.027344c0.058594-0.015625 0.12109-0.035156 0.17969-0.058594 0.0625-0.023437 0.12109-0.058593 0.17969-0.09375l0.078125-0.042968c0.046875-0.023438 0.085938-0.046875 0.12891-0.074219 0.24609-0.16406 0.45312-0.37109 0.62109-0.62109 0.027344-0.042969 0.050781-0.085937 0.074219-0.13281l0.042969-0.078125c0.03125-0.054688 0.0625-0.11328 0.085937-0.17188 0.023438-0.058594 0.042969-0.12109 0.058594-0.18359l0.027344-0.085937c0.015625-0.046876 0.03125-0.097657 0.039062-0.14844 0.03125-0.14844 0.046875-0.29688 0.046875-0.44141v-8.3828c0-1.2344-1.0039-2.2383-2.2383-2.2383s-2.2383 1.0039-2.2383 2.2383v2.9727l-1.8789-1.8789c0.53125-1.2188 0.80078-2.5156 0.80078-3.8633 0-6.8164-5.8984-15.809-8.4336-19.359-0.29688-0.41406-0.76172-0.65625-1.2695-0.65625-0.51172 0-0.97656 0.23828-1.2695 0.65625-2.375 3.3242-7.7969 11.562-8.3828 18.219l-3.6992-3.6992c-0.42188-0.42188-0.98438-0.65625-1.5859-0.65625-0.59766 0-1.1602 0.23438-1.5859 0.65625-0.42188 0.42188-0.65625 0.98438-0.65625 1.5859 0 0.59766 0.23438 1.1641 0.65625 1.5859l7.6016 7.6016c0.42188 0.42188 0.98438 0.65625 1.5859 0.65625 0.066407 0 0.13281-0.003906 0.19922-0.011719 1.8359 1.9922 4.4258 3.1328 7.1367 3.1328 2.2656 0 4.4492-0.78906 6.1836-2.2266l1.4297 1.4297h-2.9727c-1.2344 0-2.2383 1.0039-2.2383 2.2383s1.0039 2.2383 2.2383 2.2383h8.3828c0.14062 0.007813 0.28906-0.003906 0.43359-0.035156zm-14.156-32.297c0.16406-0.22656 0.41406-0.35938 0.69531-0.35938s0.53125 0.12891 0.69531 0.35938c2.4961 3.4961 8.3047 12.336 8.3047 18.949 0 1.1523-0.21094 2.2656-0.63281 3.3242l-7.3438-7.3438c-0.875-0.87109-2.2969-0.87109-3.1719 0l-5.1914 5.1914-1.6484-1.6484c0.26953-6.5664 5.8789-15.09 8.293-18.473zm0.69531 27.945c-2.3906 0-4.6797-0.95312-6.3633-2.6367 0.22266-0.10938 0.42969-0.25391 0.61328-0.43359l5.1914-5.1914 6.2422 6.2422c-1.6055 1.3047-3.6055 2.0195-5.6836 2.0195zm3.1094 2.1523c0-0.84375 0.6875-1.5312 1.5312-1.5312h3.8281c0.14063 0 0.27344-0.085938 0.32813-0.21875 0.054687-0.13281 0.023437-0.28516-0.078126-0.38672l-9.0312-9.0312c-0.13672-0.13672-0.36328-0.13672-0.5 0l-5.4414 5.4414c-0.28906 0.28906-0.67578 0.44922-1.082 0.44922-0.41016 0-0.79688-0.16016-1.0859-0.44922l-7.6016-7.6016c-0.28906-0.28906-0.44922-0.67578-0.44922-1.082 0-0.41016 0.16016-0.79688 0.44922-1.082 0.28906-0.28906 0.67578-0.44922 1.082-0.44922 0.41016 0 0.79688 0.16016 1.0859 0.44922l6.2695 6.2734c0.13672 0.13672 0.36328 0.13672 0.5 0l5.4414-5.4414c0.59766-0.59766 1.5703-0.59766 2.168 0l10.367 10.367c0.10156 0.10156 0.25391 0.13281 0.38672 0.078125 0.13281-0.054687 0.21875-0.18359 0.21875-0.32812v-3.8281c0-0.84375 0.6875-1.5312 1.5312-1.5312s1.5312 0.6875 1.5312 1.5312v8.3828c0 0.097656-0.011718 0.19922-0.03125 0.30078-0.003906 0.023438-0.011718 0.042969-0.019531 0.0625-0.007813 0.023438-0.015625 0.046875-0.019531 0.066406l-0.015625 0.054688c-0.011719 0.035156-0.015625 0.070312-0.03125 0.10156-0.011719 0.03125-0.03125 0.0625-0.050781 0.09375l-0.058594 0.11328c-0.011719 0.019531-0.019532 0.039062-0.03125 0.058593-0.11328 0.17188-0.25781 0.3125-0.42578 0.42578-0.015624 0.011719-0.035156 0.019532-0.054687 0.03125-0.019531 0.011719-0.039063 0.019532-0.0625 0.03125l-0.046875 0.023438c-0.03125 0.015625-0.066406 0.039062-0.10156 0.050781-0.03125 0.011719-0.066407 0.023438-0.097657 0.03125l-0.058593 0.015625c-0.023438 0.007813-0.046876 0.015625-0.066407 0.019532-0.019531 0.007812-0.042969 0.015624-0.066406 0.019531-0.10156 0.019531-0.20312 0.03125-0.30078 0.03125l-8.3789-0.003907c-0.84375-0.003906-1.5312-0.69141-1.5312-1.5391z"/>
<text x="0.0" y="117.5" font-size="5.0" font-weight="bold" font-family="Arbeit Regular, Helvetica, Arial-Unicode, Arial, Sans-serif" fill="#000000">Created by bsd studio</text><text x="0.0" y="122.5" font-size="5.0" font-weight="bold" font-family="Arbeit Regular, Helvetica, Arial-Unicode, Arial, Sans-serif" fill="#000000">from Noun Project</text></svg>