<?xml version="1.0" standalone="no"?>
<!DOCTYPE svg PUBLIC "-//W3C//DTD SVG 20010904//EN"
 "http://www.w3.org/TR/2001/REC-SVG-20010904/DTD/svg10.dtd">
<svg version="1.0" xmlns="http://www.w3.org/2000/svg"
 width="512.000000pt" height="512.000000pt" viewBox="0 0 512.000000 512.000000"
 preserveAspectRatio="xMidYMid meet">

<g transform="translate(0.000000,512.000000) scale(0.100000,-0.100000)"
fill="#000000" stroke="none">
<path d="M2217 4878 c-30 -23 -37 -68 -37 -226 l0 -157 -112 -35 c-62 -19
-174 -65 -248 -102 l-135 -67 -115 113 c-125 124 -147 140 -183 131 -13 -4
-126 -109 -250 -234 -208 -208 -227 -230 -227 -261 0 -31 13 -48 122 -157
l122 -123 -56 -107 c-56 -109 -104 -229 -134 -335 l-15 -58 -165 0 c-166 0
-195 -5 -221 -39 -9 -12 -12 -101 -13 -339 l0 -323 25 -24 24 -25 434 0 434 0
21 23 c21 22 22 32 22 223 0 127 5 232 15 289 83 514 517 885 1035 885 520 0
958 -377 1036 -890 8 -57 14 -172 14 -288 0 -191 0 -193 25 -217 l24 -25 431
0 431 0 24 25 25 24 0 323 c-1 238 -4 327 -13 339 -26 34 -55 39 -221 39
l-165 0 -15 58 c-29 105 -78 226 -134 335 l-56 108 122 122 c109 109 122 126
122 157 0 31 -19 53 -227 261 -124 125 -237 230 -250 234 -36 9 -58 -7 -183
-131 l-115 -113 -135 67 c-74 37 -186 83 -247 102 l-113 35 0 150 c0 161 -10
219 -40 235 -29 16 -662 13 -683 -2z m553 -303 c0 -91 4 -164 11 -178 14 -32
35 -42 136 -67 157 -39 317 -107 443 -188 91 -59 101 -55 238 81 l117 117 150
-150 149 -150 -111 -112 c-123 -125 -137 -152 -108 -202 93 -161 121 -214 154
-301 21 -55 49 -140 61 -190 33 -137 29 -135 232 -135 l168 0 0 -215 0 -215
-320 0 -320 0 0 159 c0 246 -37 415 -130 599 -174 340 -491 577 -869 647 -108
20 -314 20 -422 0 -487 -90 -863 -454 -975 -943 -9 -41 -17 -142 -21 -264 l-6
-198 -318 0 -319 0 0 215 0 215 168 0 c129 1 171 4 186 15 12 9 30 57 52 138
39 148 92 275 168 402 31 51 56 101 56 110 0 31 -22 60 -128 168 l-107 107
150 150 150 150 117 -117 c137 -136 147 -140 238 -81 119 77 283 148 422 183
35 9 80 21 100 26 60 16 68 42 68 224 l0 155 210 0 210 0 0 -155z"/>
<path d="M2525 3749 c-11 -6 -68 -70 -127 -142 -425 -525 -637 -899 -679
-1202 -21 -152 10 -317 92 -479 22 -43 39 -80 37 -81 -2 -1 -88 -46 -193 -98
-104 -53 -237 -125 -295 -160 l-105 -65 -18 31 c-47 78 -85 86 -368 78 -215
-6 -216 -6 -251 -33 -70 -53 -69 -45 -66 -684 l3 -571 28 -36 c54 -70 63 -72
327 -69 134 2 243 8 255 14 11 6 35 24 53 42 l33 31 827 6 827 5 55 23 c129
52 343 179 649 384 312 208 849 592 891 636 92 96 93 201 3 282 -60 54 -125
72 -237 66 -50 -3 -103 -9 -117 -12 -22 -6 -27 -3 -32 17 -7 28 -60 84 -98
103 -62 33 -190 36 -284 7 -63 -19 -128 -60 -405 -256 -301 -213 -317 -222
-550 -301 l-125 -42 -225 18 c-124 10 -254 18 -289 19 l-65 0 49 31 c27 17
103 62 168 101 l120 69 86 -6 c162 -13 335 26 481 108 99 56 251 205 310 305
90 154 134 356 111 518 -41 291 -242 655 -634 1144 -169 212 -187 226 -242
199z m134 -325 c284 -355 473 -665 546 -894 20 -62 29 -113 32 -190 6 -129
-11 -210 -69 -330 -80 -165 -267 -314 -445 -354 l-61 -14 28 45 c40 63 55 140
40 203 -18 76 -58 123 -137 162 -63 31 -74 33 -163 32 -79 -1 -111 -7 -191
-33 -52 -18 -129 -52 -169 -76 l-75 -44 -32 57 c-60 104 -78 180 -77 327 0
115 3 140 28 215 55 166 176 388 336 615 82 116 301 395 310 395 4 0 48 -52
99 -116z m-115 -1533 c43 -40 31 -105 -31 -163 -15 -15 -71 -50 -123 -78 -156
-85 -343 -198 -416 -253 -77 -59 -114 -106 -114 -149 0 -38 40 -78 77 -78 16
0 44 -5 63 -10 129 -37 572 -79 920 -87 396 -9 337 -26 814 240 219 122 419
230 445 239 57 21 150 23 196 4 39 -17 44 -34 18 -64 -40 -46 -995 -705 -1213
-837 -182 -110 -265 -147 -353 -156 -44 -4 -413 -9 -821 -10 l-741 -1 0 101
c0 55 1 246 3 424 l2 323 108 71 c59 40 226 133 372 208 145 75 311 164 368
197 138 81 224 109 324 106 65 -3 80 -7 102 -27z m1412 -205 c18 -14 18 -17 4
-43 -17 -29 -24 -34 -447 -270 l-243 -135 -87 -5 -88 -5 35 23 c19 12 155 107
301 210 147 104 291 200 320 214 63 29 172 35 205 11z"/>
<path d="M2865 2645 c-34 -33 -31 -62 13 -146 35 -68 37 -76 37 -168 0 -88 -3
-102 -33 -165 -36 -77 -36 -115 1 -141 27 -19 76 -19 103 -1 11 8 32 38 47 68
77 155 76 329 -5 480 -52 98 -112 125 -163 73z"/>
</g>
</svg>
