<?xml version="1.0" standalone="no"?>
<!DOCTYPE svg PUBLIC "-//W3C//DTD SVG 20010904//EN"
 "http://www.w3.org/TR/2001/REC-SVG-20010904/DTD/svg10.dtd">
<svg version="1.0" xmlns="http://www.w3.org/2000/svg"
 width="512.000000pt" height="512.000000pt" viewBox="0 0 512.000000 512.000000"
 preserveAspectRatio="xMidYMid meet">

<g transform="translate(0.000000,512.000000) scale(0.100000,-0.100000)"
fill="#000000" stroke="none">
<path d="M1327 5042 c-14 -15 -17 -42 -17 -149 0 -118 2 -132 20 -148 16 -15
26 -17 48 -9 l27 9 3 145 c2 127 1 146 -15 157 -24 18 -47 16 -66 -5z"/>
<path d="M492 4724 c-12 -8 -22 -25 -22 -37 0 -24 158 -207 189 -219 25 -9 61
18 61 46 0 29 -173 226 -198 226 -4 0 -18 -7 -30 -16z"/>
<path d="M2102 4643 c-50 -54 -95 -105 -98 -115 -7 -24 11 -54 38 -62 19 -5
38 10 115 92 51 53 95 105 98 114 8 24 -10 54 -37 62 -19 5 -38 -10 -116 -91z"/>
<path d="M1265 4594 c-331 -47 -547 -181 -669 -414 -67 -128 -92 -276 -75
-442 19 -184 61 -282 229 -532 137 -203 151 -236 160 -391 10 -171 42 -225
153 -256 32 -9 37 -13 37 -41 0 -44 37 -102 80 -127 34 -19 53 -21 186 -21
131 0 153 2 182 20 39 24 69 70 77 122 6 33 11 39 45 48 50 13 95 52 120 101
15 29 20 59 20 122 0 152 33 237 171 433 101 145 178 294 205 399 25 97 26
324 1 415 -72 270 -288 468 -589 540 -80 19 -271 33 -333 24z m312 -125 c143
-32 294 -116 373 -205 163 -186 203 -450 108 -712 -23 -63 -61 -129 -144 -253
-145 -215 -172 -271 -199 -401 l-5 -28 -150 0 -150 0 0 190 0 190 38 19 c126
64 215 304 149 402 -86 128 -215 26 -264 -207 -9 -44 -18 -81 -20 -83 -1 -2
-11 3 -21 13 -31 27 -70 107 -89 181 -20 74 -36 91 -76 81 -36 -9 -42 -39 -22
-116 30 -116 105 -229 177 -266 l28 -15 0 -194 0 -195 -148 0 -147 0 -12 61
c-17 87 -68 188 -176 346 -164 239 -196 321 -204 518 -6 150 6 214 62 334 48
101 159 211 271 269 187 96 405 121 621 71z m-61 -907 c-7 -52 -43 -136 -75
-172 l-21 -25 6 40 c16 108 63 223 86 209 6 -4 8 -25 4 -52z m189 -829 c-3
-16 -16 -38 -27 -50 -21 -23 -25 -23 -264 -23 l-242 0 -11 31 c-25 73 -43 69
270 69 l281 0 -7 -27z"/>
<path d="M3915 4489 c-252 -32 -495 -168 -657 -368 -278 -344 -303 -820 -62
-1194 64 -100 210 -241 314 -305 559 -344 1292 -78 1499 545 180 540 -142
1144 -690 1292 -139 38 -267 47 -404 30z m344 -120 c91 -21 222 -78 298 -130
70 -47 178 -154 229 -226 128 -178 191 -419 165 -631 -46 -373 -294 -668 -656
-778 -82 -25 -104 -28 -250 -28 -146 0 -168 3 -250 28 -319 97 -551 336 -636
656 -29 109 -32 317 -6 424 94 381 403 658 787 706 88 11 217 3 319 -21z"/>
<path d="M3855 4281 c-158 -42 -266 -102 -373 -205 -168 -160 -252 -353 -255
-581 -2 -142 20 -240 83 -370 104 -217 293 -373 528 -437 109 -30 305 -30 414
0 459 126 720 607 572 1052 -41 123 -99 215 -199 316 -105 106 -188 159 -325
205 -86 30 -108 33 -235 36 -113 2 -153 -1 -210 -16z m332 -96 c207 -40 404
-190 498 -381 58 -117 79 -218 72 -354 -9 -196 -69 -333 -207 -470 -143 -144
-306 -212 -505 -212 -398 0 -716 318 -715 714 1 455 408 789 857 703z"/>
<path d="M4006 4038 c-10 -13 -16 -43 -16 -73 l0 -50 -50 -18 c-101 -36 -159
-115 -160 -216 0 -98 69 -192 164 -224 l41 -14 3 -140 c2 -139 2 -141 -18
-136 -33 9 -88 66 -96 99 -10 41 -22 54 -53 54 -106 0 -36 -177 94 -240 23
-11 49 -20 58 -20 14 0 17 -10 17 -60 0 -47 4 -64 20 -80 45 -45 90 -8 90 73
l0 53 55 18 c135 42 202 179 146 302 -23 51 -92 110 -153 132 l-48 17 0 142
c0 108 3 143 13 143 30 0 78 -43 100 -87 18 -38 28 -49 50 -51 42 -5 60 15 54
60 -11 79 -87 158 -174 180 l-43 10 0 52 c0 60 -20 96 -55 96 -13 0 -31 -10
-39 -22z m-16 -363 l0 -126 -27 15 c-55 28 -78 63 -78 118 0 44 4 53 37 84 64
58 68 52 68 -91z m143 -286 c71 -37 100 -99 74 -161 -13 -32 -64 -68 -96 -68
-7 0 -11 39 -11 120 0 66 3 120 6 120 3 0 15 -5 27 -11z"/>
<path d="M75 3910 c-21 -23 -14 -64 12 -75 28 -11 257 -29 276 -22 9 3 19 18
23 32 11 45 -12 56 -143 71 -153 17 -147 17 -168 -6z"/>
<path d="M2479 3916 c-112 -12 -139 -24 -139 -61 0 -45 20 -50 162 -37 72 6
137 17 144 23 21 17 17 66 -5 79 -22 11 -17 11 -162 -4z"/>
<path d="M2536 2755 c-204 -52 -352 -204 -413 -425 -27 -96 -24 -326 5 -435
42 -158 140 -322 246 -416 32 -28 37 -37 32 -62 -8 -41 -25 -59 -47 -52 -25 8
-240 -104 -247 -127 -2 -11 -25 -23 -61 -33 -370 -104 -525 -185 -587 -306
-49 -97 -56 -151 -61 -490 -5 -287 -4 -317 12 -332 15 -16 108 -17 1289 -17
1258 0 1273 0 1291 20 17 19 18 40 12 322 -6 317 -15 390 -57 485 -50 114
-192 198 -473 283 -125 37 -174 56 -190 74 -35 39 -213 129 -241 122 -18 -4
-25 0 -34 20 -20 42 -14 58 39 109 113 110 188 247 231 422 31 124 30 306 -1
418 -57 206 -171 333 -360 403 -85 32 -291 40 -385 17z m350 -109 c311 -98
416 -533 221 -911 -100 -192 -302 -319 -456 -286 -94 20 -161 59 -241 140
-206 208 -269 572 -143 831 59 121 151 198 286 235 68 19 261 14 333 -9z
m-326 -1278 c76 -30 213 -31 287 -1 l51 20 25 -48 25 -48 -106 -87 c-59 -48
-114 -94 -123 -101 -13 -11 -32 1 -137 87 l-121 100 22 50 c12 27 22 50 22 50
0 0 25 -10 55 -22z m-77 -227 c70 -58 127 -108 127 -113 0 -6 -133 -100 -187
-131 -7 -5 -43 45 -102 143 -50 83 -91 153 -91 155 0 10 106 63 116 57 6 -4
68 -54 137 -111z m645 86 c29 -15 51 -31 49 -35 -14 -25 -171 -288 -176 -294
-4 -4 -53 23 -109 61 l-103 68 138 116 c76 64 140 115 143 114 3 -1 29 -15 58
-30z m-878 -268 c52 -86 101 -164 109 -173 24 -29 60 -17 164 52 56 38 108 72
115 76 9 6 12 -72 12 -373 l0 -381 -575 0 -575 0 0 153 c0 203 16 420 35 484
37 125 140 188 464 284 69 21 133 37 141 36 8 -1 58 -73 110 -158z m1189 116
c280 -82 400 -158 436 -277 19 -63 35 -285 35 -490 l0 -148 -580 0 -580 0 0
385 0 385 121 -80 c89 -61 127 -80 147 -78 23 3 42 27 131 176 60 98 110 172
119 172 8 0 85 -20 171 -45z"/>
<path d="M3180 631 c-14 -27 -13 -47 6 -65 13 -13 45 -16 193 -16 190 0 201 3
201 50 0 47 -11 50 -207 50 -170 0 -183 -1 -193 -19z"/>
<path d="M1326 2128 c-13 -18 -16 -55 -16 -190 0 -223 -15 -208 213 -208 140
0 177 3 195 16 24 17 29 56 9 72 -8 7 -73 13 -163 14 l-149 3 -5 148 c-4 117
-8 150 -20 157 -25 16 -48 11 -64 -12z"/>
<path d="M4014 2136 c-17 -13 -19 -29 -22 -160 l-3 -146 -148 0 c-159 0 -171
-4 -171 -52 0 -42 28 -48 210 -48 87 0 170 4 184 10 l26 10 0 189 c0 178 -1
191 -19 201 -26 13 -33 13 -57 -4z"/>
</g>
</svg>
