<?xml version="1.0" standalone="no"?>
<!DOCTYPE svg PUBLIC "-//W3C//DTD SVG 20010904//EN"
 "http://www.w3.org/TR/2001/REC-SVG-20010904/DTD/svg10.dtd">
<svg version="1.0" xmlns="http://www.w3.org/2000/svg"
 width="512.000000pt" height="512.000000pt" viewBox="0 0 512.000000 512.000000"
 preserveAspectRatio="xMidYMid meet">

<g transform="translate(0.000000,512.000000) scale(0.100000,-0.100000)"
fill="#000000" stroke="none">
<path d="M1200 3506 c-90 -24 -173 -96 -213 -185 -28 -62 -29 -179 -1 -237
l19 -42 130 74 c102 58 138 74 170 74 43 0 99 -28 127 -63 16 -21 16 -19 11
40 -3 35 0 83 6 110 25 101 116 198 215 229 36 11 13 13 -189 13 -150 0 -246
-5 -275 -13z"/>
<path d="M1536 2944 c19 -45 11 -99 -20 -144 -13 -20 -63 -57 -127 -94 l-104
-62 -3 -1002 -2 -1002 320 0 320 0 0 1120 0 1120 -103 0 c-123 0 -186 16 -250
65 l-46 35 15 -36z"/>
<path d="M3440 1001 l0 -119 -137 -4 c-123 -3 -142 -5 -175 -26 -45 -28 -75
-74 -84 -129 -5 -34 -2 -45 15 -62 21 -21 25 -21 581 -21 557 0 560 0 581 21
24 24 22 63 -7 124 -34 72 -95 95 -255 95 l-119 0 0 120 0 120 -200 0 -200 0
0 -119z"/>
</g>
</svg>
